#!OML:ASF X:\für Bonn\!DataBase\2005_08_12_Daniel\c3d\Daniel.ASF
:FULLY-SPECIFIED
:DEGREES
486
root 15.965 1.32447 1.11661 -760.765 -85.5556 -433.244
lowerback 22.7496 -2.90819 1.76287
upperback 7.75411 -4.05056 -0.829489
thorax -4.34736 -2.26509 -0.823309
lowerneck -7.79504 1.96678 -6.38527
upperneck -0.31642 3.06421 1.64369
head 1.10284 1.51978 1.70992
rclavicle 2.3059e-014 -2.20403e-014
rhumerus -44.3197 -19.7306 -64.3142
rradius 10.9897
rwrist 74.1754
rhand -6.07871 -345.273
rfingers 7.12502
rthumb 19.7567 -374.289
lclavicle 2.3059e-014 -2.20403e-014
lhumerus -766.827 23.7743 -658.462
lradius 15.7205
lwrist -70.6109
lhand -5.70935 353.791
lfingers 7.12502
lthumb 20.1117 382.77
rfemur 389.539 19.4945 387.579
rtibia 10.9141
rfoot -22.2541 -35.4988
rtoes 31.2721
lfemur 15.4193 -23.2307 -22.4279
ltibia 31.9676
lfoot -6.6286 27.3226
ltoes 10.9377
487
root 15.9672 1.32259 1.11675 -760.4 -85.5765 -433.561
lowerback 22.7505 -2.92747 1.80072
upperback 7.72395 -4.06596 -0.828335
thorax -4.3833 -2.27171 -0.8382
lowerneck -7.86255 1.96998 -6.38448
upperneck -0.264709 3.07313 1.66698
head 1.13064 1.52399 1.71983
rclavicle -9.14409e-014 8.32659e-014
rhumerus -44.3176 -19.6955 -64.3426
rradius 10.9878
rwrist 74.1495
rhand -6.07578 -345.273
rfingers 7.12502
rthumb 19.7595 -374.289
lclavicle -9.14409e-014 8.32659e-014
lhumerus -766.843 23.7277 -658.434
lradius 15.7387
lwrist -70.5551
lhand -5.71593 353.766
lfingers 7.12502
lthumb 20.1054 382.745
rfemur 389.455 19.3362 387.472
rtibia 10.878
rfoot -22.0608 -35.4819
rtoes 31.1743
lfemur 15.3266 -23.1303 -22.2917
ltibia 31.9773
lfoot -6.5875 27.3302
ltoes 10.8927
488
root 15.9686 1.32055 1.1178 -760.31 -85.5928 -433.595
lowerback 22.7252 -2.93246 1.83483
upperback 7.71166 -4.06454 -0.837581
thorax -4.38671 -2.26992 -0.868647
lowerneck -7.93965 1.96822 -6.36887
upperneck -0.236266 3.07441 1.677
head 1.15329 1.52442 1.72242
rclavicle 6.52014e-014 -2.43014e-014
rhumerus -44.3288 -19.8673 -64.2292
rradius 10.9592
rwrist 74.3706
rhand -6.10179 -345.233
rfingers 7.12502
rthumb 19.7345 -374.251
lclavicle 6.52014e-014 -2.43014e-014
lhumerus -766.842 23.77 -658.474
lradius 15.7266
lwrist -70.6662
lhand -5.74284 353.738
lfingers 7.12502
lthumb 20.0796 382.72
rfemur 389.356 19.1533 387.308
rtibia 10.829
rfoot -21.7375 -35.5078
rtoes 30.9876
lfemur 15.234 -23.0439 -22.1911
ltibia 31.9909
lfoot -6.64955 27.338
ltoes 10.9249
489
root 15.9712 1.31884 1.11806 -760.238 -85.6064 -433.617
lowerback 22.7039 -2.9429 1.86347
upperback 7.70695 -4.07254 -0.849261
thorax -4.38399 -2.27329 -0.896187
lowerneck -8.0114 1.97462 -6.35066
upperneck -0.223724 3.08542 1.68587
head 1.16951 1.52981 1.72408
rclavicle 3.73715e-014 -1.00138e-013
rhumerus -44.3301 -20.0285 -64.1474
rradius 10.948
rwrist 74.5932
rhand -6.10218 -345.227
rfingers 7.12502
rthumb 19.7341 -374.245
lclavicle 3.73715e-014 -1.00138e-013
lhumerus -766.796 23.6995 -658.407
lradius 15.7446
lwrist -70.5744
lhand -5.74384 353.716
lfingers 7.12502
lthumb 20.0786 382.698
rfemur 389.282 19.0468 387.199
rtibia 10.7864
rfoot -21.6213 -35.5037
rtoes 30.8936
lfemur 15.1414 -22.9685 -22.096
ltibia 32.005
lfoot -6.6708 27.3645
ltoes 10.9457
490
root 15.9731 1.31686 1.1182 -759.839 -85.6246 -433.977
lowerback 22.7137 -2.95752 1.9257
upperback 7.68607 -4.07683 -0.854089
thorax -4.41583 -2.27431 -0.934098
lowerneck -8.07021 1.96816 -6.38515
upperneck -0.201036 3.08301 1.74206
head 1.1863 1.52951 1.75006
rclavicle -1.19271e-014 3.51352e-014
rhumerus -44.342 -20.1119 -64.1015
rradius 10.9286
rwrist 74.6962
rhand -6.12818 -345.215
rfingers 7.12502
rthumb 19.7091 -374.236
lclavicle -1.19271e-014 3.51352e-014
lhumerus -766.829 23.7855 -658.509
lradius 15.731
lwrist -70.7598
lhand -5.7686 353.665
lfingers 7.12502
lthumb 20.0548 382.65
rfemur 389.197 18.8637 387.081
rtibia 10.7492
rfoot -21.3133 -35.5252
rtoes 30.8219
lfemur 15.0407 -22.8242 -21.9248
ltibia 32.0189
lfoot -6.61124 27.3327
ltoes 10.9965
491
root 15.9762 1.3152 1.11896 -759.483 -85.6519 -434.282
lowerback 22.7055 -2.97261 1.97223
upperback 7.66186 -4.08441 -0.839262
thorax -4.44001 -2.27723 -0.942024
lowerneck -8.11126 1.97363 -6.41858
upperneck -0.183904 3.09567 1.74063
head 1.1981 1.53526 1.75704
rclavicle -8.74653e-015 -9.29318e-015
rhumerus -44.3417 -20.1468 -64.0369
rradius 10.9179
rwrist 74.8011
rhand -6.13739 -345.147
rfingers 7.12502
rthumb 19.7003 -374.169
lclavicle -8.74653e-015 -9.29318e-015
lhumerus -766.837 23.7412 -658.44
lradius 15.7398
lwrist -70.7557
lhand -5.81558 353.684
lfingers 7.12502
lthumb 20.0096 382.674
rfemur 389.097 18.6827 386.952
rtibia 10.7059
rfoot -20.8279 -35.6143
rtoes 30.6184
lfemur 14.9322 -22.6876 -21.7667
ltibia 32.032
lfoot -6.50465 27.3274
ltoes 10.941
492
root 15.9792 1.31219 1.11956 -759.342 -85.6508 -434.368
lowerback 22.7116 -2.99054 2.00277
upperback 7.63458 -4.10025 -0.85154
thorax -4.47607 -2.28409 -0.966884
lowerneck -8.18476 1.98234 -6.39687
upperneck -0.150068 3.11006 1.74593
head 1.22146 1.54201 1.75745
rclavicle -6.83819e-014 1.1614e-013
rhumerus -44.3942 -20.3068 -63.9137
rradius 10.9167
rwrist 75.0728
rhand -6.16056 -345.107
rfingers 7.12502
rthumb 19.678 -374.131
lclavicle -6.83819e-014 1.1614e-013
lhumerus -766.835 23.6952 -658.419
lradius 15.7526
lwrist -70.7444
lhand -5.80714 353.652
lfingers 7.12502
lthumb 20.0177 382.641
rfemur 389 18.4935 386.782
rtibia 10.6521
rfoot -20.6012 -35.5824
rtoes 30.4979
lfemur 14.7874 -22.4834 -21.5869
ltibia 32.0507
lfoot -6.31183 27.2759
ltoes 10.9273
493
root 15.9824 1.31076 1.11979 -759.152 -85.6668 -434.514
lowerback 22.7114 -2.99915 2.05254
upperback 7.61999 -4.09994 -0.861991
thorax -4.49559 -2.28295 -1.00577
lowerneck -8.31456 1.96752 -6.40865
upperneck -0.08641 3.10007 1.77141
head 1.2649 1.53668 1.77139
rclavicle 9.30312e-014 -1.70781e-013
rhumerus -44.4018 -20.4303 -63.8471
rradius 10.8925
rwrist 75.213
rhand -6.1886 -345.09
rfingers 7.12502
rthumb 19.651 -374.117
lclavicle 9.30312e-014 -1.70781e-013
lhumerus -766.846 23.7633 -658.496
lradius 15.7392
lwrist -70.9143
lhand -5.87375 353.612
lfingers 7.12502
lthumb 19.9537 382.608
rfemur 388.894 18.2455 386.593
rtibia 10.6055
rfoot -19.9767 -35.6736
rtoes 30.2625
lfemur 14.6743 -22.3111 -21.4259
ltibia 32.0696
lfoot -6.19335 27.2601
ltoes 10.9113
494
root 15.9862 1.30953 1.12015 -758.799 -85.6896 -434.824
lowerback 22.7052 -3.02088 2.10425
upperback 7.60932 -4.11718 -0.864235
thorax -4.50803 -2.29103 -1.03273
lowerneck -8.43572 1.98471 -6.41786
upperneck -0.0507246 3.13062 1.79253
head 1.29608 1.55154 1.78406
rclavicle -1.82882e-014 3.7123e-014
rhumerus -44.3852 -20.4591 -63.8368
rradius 10.8983
rwrist 75.2951
rhand -6.20833 -345.089
rfingers 7.12502
rthumb 19.6321 -374.117
lclavicle -1.82882e-014 3.7123e-014
lhumerus -766.839 23.747 -658.477
lradius 15.7394
lwrist -70.9052
lhand -5.89188 353.602
lfingers 7.12502
lthumb 19.9363 382.6
rfemur 388.801 18.0482 386.452
rtibia 10.565
rfoot -19.6284 -35.6683
rtoes 30.1524
lfemur 14.5451 -22.0908 -21.2172
ltibia 32.0909
lfoot -5.97203 27.1969
ltoes 10.8822
495
root 15.9883 1.3075 1.12035 -758.386 -85.7072 -435.197
lowerback 22.7088 -3.03471 2.16868
upperback 7.60192 -4.12103 -0.870749
thorax -4.52237 -2.29226 -1.07464
lowerneck -8.62074 1.97466 -6.39963
upperneck 0.0380655 3.12817 1.79482
head 1.35778 1.54904 1.78702
rclavicle -2.38542e-015 3.69988e-014
rhumerus -44.3949 -20.6017 -63.775
rradius 10.8921
rwrist 75.4571
rhand -6.23782 -345.093
rfingers 7.12502
rthumb 19.6037 -374.125
lclavicle -2.38542e-015 3.69988e-014
lhumerus -766.835 23.8052 -658.535
lradius 15.7353
lwrist -71.0804
lhand -5.97958 353.592
lfingers 7.12502
lthumb 19.852 382.598
rfemur 388.694 17.7962 386.284
rtibia 10.5208
rfoot -19.0267 -35.7222
rtoes 29.9995
lfemur 14.4235 -21.9053 -21.0271
ltibia 32.1181
lfoot -5.80655 27.1336
ltoes 10.8347
496
root 15.9922 1.30589 1.12068 -758.239 -85.7185 -435.279
lowerback 22.7044 -3.04165 2.20046
upperback 7.56294 -4.12013 -0.869702
thorax -4.56443 -2.29036 -1.0905
lowerneck -8.71278 1.97832 -6.40509
upperneck 0.0900101 3.13965 1.80432
head 1.39025 1.55413 1.79439
rclavicle -4.77083e-015 1.68967e-014
rhumerus -44.4479 -20.7107 -63.6521
rradius 10.8777
rwrist 75.6662
rhand -6.30046 -345.074
rfingers 7.12502
rthumb 19.5435 -374.112
lclavicle -4.77083e-015 1.68967e-014
lhumerus -766.875 23.8564 -658.588
lradius 15.7068
lwrist -71.23
lhand -6.03332 353.609
lfingers 7.12502
lthumb 19.8003 382.62
rfemur 388.568 17.5394 386.076
rtibia 10.4682
rfoot -18.4824 -35.7246
rtoes 29.8437
lfemur 14.2585 -21.6567 -20.8239
ltibia 32.1505
lfoot -5.51155 27.0509
ltoes 10.777
497
root 15.996 1.30396 1.12061 -757.747 -85.7327 -435.74
lowerback 22.7329 -3.06393 2.25579
upperback 7.55023 -4.13643 -0.863713
thorax -4.59605 -2.29835 -1.10899
lowerneck -8.93667 1.9762 -6.4265
upperneck 0.212661 3.15399 1.81919
head 1.46882 1.55956 1.81065
rclavicle 3.18055e-015 6.52511e-014
rhumerus -44.4584 -20.8753 -63.5286
rradius 10.8665
rwrist 75.906
rhand -6.33166 -345.064
rfingers 7.12502
rthumb 19.5135 -374.105
lclavicle 3.18055e-015 6.52511e-014
lhumerus -766.857 23.8318 -658.541
lradius 15.7029
lwrist -71.2187
lhand -6.09448 353.616
lfingers 7.12502
lthumb 19.7415 382.634
rfemur 388.456 17.2674 385.907
rtibia 10.4405
rfoot -17.8285 -35.7611
rtoes 29.562
lfemur 14.1185 -21.3832 -20.5853
ltibia 32.1843
lfoot -5.17263 26.9642
ltoes 10.6319
498
root 16.0001 1.30248 1.12073 -757.489 -85.743 -435.953
lowerback 22.7534 -3.07633 2.31577
upperback 7.51521 -4.13727 -0.879456
thorax -4.64938 -2.29733 -1.15715
lowerneck -9.07507 1.97702 -6.39739
upperneck 0.30011 3.16222 1.80975
head 1.52199 1.56219 1.8073
rclavicle 9.62118e-014 -8.94034e-014
rhumerus -44.6009 -21.3106 -63.1823
rradius 10.827
rwrist 76.4529
rhand -6.39104 -345.055
rfingers 7.12502
rthumb 19.4564 -374.102
lclavicle 9.62118e-014 -8.94034e-014
lhumerus -766.887 23.8309 -658.591
lradius 15.6998
lwrist -71.3935
lhand -6.13851 353.627
lfingers 7.12502
lthumb 19.6992 382.649
rfemur 388.327 17.0054 385.722
rtibia 10.4201
rfoot -17.103 -35.803
rtoes 29.2746
lfemur 13.9633 -21.1132 -20.3698
ltibia 32.2198
lfoot -4.77599 26.8778
ltoes 10.4506
